<svg width="24" height="24" viewBox="0 0 24 24" fill="none" xmlns="http://www.w3.org/2000/svg">
<path d="M10.4978 1.04171C10.2255 0.995568 10 1.22386 10 1.5V1.5C10 1.77614 10.2273 1.99354 10.4951 2.06105C11.0407 2.19861 11.4951 2.55877 11.7574 3.04047C12.0214 3.52553 12.4477 4 13 4V4C13.5586 4 14 4.44141 14 5C14 5.3125 13.9219 5.49219 13.793 5.64453C13.7468 5.6975 13.6916 5.7481 13.6282 5.79602C13.4069 5.9631 13.2719 6.24436 13.3756 6.5015V6.5015C13.4789 6.75747 13.7741 6.88734 14.0105 6.74496C14.2079 6.62611 14.393 6.47839 14.5508 6.28906C14.8281 5.96094 15 5.51562 15 5C15 3.90234 14.0977 3 13 3H12.8164C12.4564 1.99117 11.5765 1.22454 10.4978 1.04171ZM8 0.5C8 0.223858 7.7726 -0.00634431 7.50522 0.0626811C6.64376 0.285075 6 1.07287 6 2C6 3.09766 6.90234 4 8 4H8.5C8.99219 4 9.40234 4.09766 9.64062 4.25391C9.87891 4.41016 10 4.58203 10 5H11C11 4.3125 10.6719 3.73438 10.1875 3.41797C9.70312 3.10156 9.11328 3 8.5 3H8C7.44141 3 7 2.55859 7 2C7 1.61628 7.20829 1.28786 7.51978 1.11984C7.76282 0.988735 8 0.776142 8 0.5V0.5Z" fill="#A5AFBE"/>
<path d="M1 19V13C1 12.4477 1.44772 12 2 12H3L6 6H16L19 12H22C22.5523 12 23 12.4477 23 13V19C23 19.5523 22.5523 20 22 20H2C1.44772 20 1 19.5523 1 19Z" fill="#E10500"/>
<path d="M3 12C3.48 12 16.5333 12 19 12" stroke="#E10500" stroke-opacity="0.5" stroke-width="2" stroke-miterlimit="2.61313" stroke-linecap="round" stroke-linejoin="round"/>
<path d="M6.5 7L4.5 11H10V7H6.5Z" fill="white"/>
<path d="M12 11V7H15.5L17.5 11H12Z" fill="white"/>
<path d="M6.5 7L4.5 11H10V7H6.5Z" fill="#1978F0" fill-opacity="0.5"/>
<path d="M12 11V7H15.5L17.5 11H12Z" fill="#1978F0" fill-opacity="0.5"/>
<path d="M5 20H2C1.44772 20 1 19.5523 1 19V13C1 12.4477 1.44772 12 2 12H3L6 6H16L19 12H22C22.5523 12 23 12.4477 23 13V19C23 19.5523 22.5523 20 22 20H19M9 20H15" stroke="#E10500" stroke-width="2" stroke-miterlimit="2.61313" stroke-linecap="round" stroke-linejoin="round"/>
<path d="M22 16C22 15.4477 22.4477 15 23 15H24V17H23C22.4477 17 22 16.5523 22 16V16Z" fill="#F5CD23" fill-opacity="0.75"/>
<path d="M7 23C8.65685 23 10 21.6569 10 20C10 18.3431 8.65685 17 7 17C5.34315 17 4 18.3431 4 20C4 21.6569 5.34315 23 7 23Z" stroke="#19375F" stroke-width="2" stroke-miterlimit="2.61313" stroke-linecap="round" stroke-linejoin="round"/>
<path d="M7 22C8.10457 22 9 21.1046 9 20C9 18.8954 8.10457 18 7 18C5.89543 18 5 18.8954 5 20C5 21.1046 5.89543 22 7 22Z" fill="#A5AFBE"/>
<path d="M7 21C7.55228 21 8 20.5523 8 20C8 19.4477 7.55228 19 7 19C6.44772 19 6 19.4477 6 20C6 20.5523 6.44772 21 7 21Z" fill="white"/>
<path d="M17 23C18.6569 23 20 21.6569 20 20C20 18.3431 18.6569 17 17 17C15.3431 17 14 18.3431 14 20C14 21.6569 15.3431 23 17 23Z" stroke="#19375F" stroke-width="2" stroke-miterlimit="2.61313" stroke-linecap="round" stroke-linejoin="round"/>
<path d="M17 22C18.1046 22 19 21.1046 19 20C19 18.8954 18.1046 18 17 18C15.8954 18 15 18.8954 15 20C15 21.1046 15.8954 22 17 22Z" fill="#A5AFBE"/>
<path d="M17 21C17.5523 21 18 20.5523 18 20C18 19.4477 17.5523 19 17 19C16.4477 19 16 19.4477 16 20C16 20.5523 16.4477 21 17 21Z" fill="white"/>
<rect opacity="0.25" x="12" y="7" width="2" height="4" fill="white"/>
<rect opacity="0.25" x="8" y="7" width="2" height="4" fill="white"/>
<path d="M21 1L20.6641 1.30564C20.6641 1.30564 20.0114 1.90064 19.3574 2.73922C18.7034 3.5778 18 4.6567 18 5.81341C18 7.55122 19.332 9 21 9C22.668 9 24 7.55122 24 5.81341C24 4.6567 23.2966 3.5778 22.6426 2.73922C21.9886 1.90064 21.3359 1.30564 21.3359 1.30564L21 1Z" fill="#F5CD23"/>
<path d="M21 1L20.6641 1.30564C20.6641 1.30564 20.0114 1.90064 19.3574 2.73922C18.7034 3.5778 18 4.6567 18 5.81341C18 7.55122 19.332 9 21 9C22.668 9 24 7.55122 24 5.81341C24 4.6567 23.2966 3.5778 22.6426 2.73922C21.9886 1.90064 21.3359 1.30564 21.3359 1.30564L21 1ZM21 2.42371C21.2072 2.6254 21.4292 2.8153 21.8574 3.36431C22.4534 4.12849 23 5.11445 23 5.81341C23 6.65943 22.5618 7.36623 21.9336 7.72812C21.9707 7.60828 22 7.48397 22 7.34952C22 6.50447 21 4.96155 21 4.96155C21 4.96155 20 6.52164 20 7.34952C20 7.48397 20.0293 7.60828 20.0664 7.72812C19.4382 7.36623 19 6.65943 19 5.81341C19 5.11445 19.5466 4.12849 20.1426 3.36431C20.5708 2.8153 20.7928 2.6254 21 2.42371Z" fill="#F58214"/>
</svg>
