<svg width="24" height="24" viewBox="0 0 24 24" fill="none" xmlns="http://www.w3.org/2000/svg">
<path d="M1 21V3C1 1.89543 1.89543 1 3 1H21C22.1046 1 23 1.89543 23 3V21C23 22.1046 22.1046 23 21 23H3C1.89543 23 1 22.1046 1 21Z" stroke="#0F8C50" stroke-width="2" stroke-linecap="round" stroke-linejoin="round"/>
<path d="M8 19H5" stroke="#0F8C50" stroke-opacity="0.5" stroke-width="2" stroke-linecap="round" stroke-linejoin="round"/>
<path d="M19 15H5" stroke="#0F8C50" stroke-opacity="0.5" stroke-width="2" stroke-linecap="round" stroke-linejoin="round"/>
<path d="M12 11H5" stroke="#0F8C50" stroke-opacity="0.5" stroke-width="2" stroke-linecap="round" stroke-linejoin="round"/>
<path d="M19 7H5" stroke="#0F8C50" stroke-opacity="0.5" stroke-width="2" stroke-linecap="round" stroke-linejoin="round"/>
<path d="M19 15H16L5 4L8 1L19 12V15Z" fill="white"/>
<path d="M5.7071 3.29289L7.29289 1.70711C7.68342 1.31658 8.31658 1.31658 8.70711 1.70711L11 4L8 7L5.70711 4.70711C5.31658 4.31658 5.31658 3.68342 5.7071 3.29289Z" fill="#EBC328"/>
<path d="M11 4L8 7" stroke="#19375F" stroke-width="2" stroke-linecap="round" stroke-linejoin="round"/>
<path d="M19 15H16L5 4L8 1L19 12V15Z" stroke="#19375F" stroke-width="2" stroke-linecap="round" stroke-linejoin="round"/>
<path d="M11 18L13 20L15 18" stroke="#CD1E28" stroke-width="2" stroke-linecap="round" stroke-linejoin="round"/>
<path d="M15 18L17 20L19 18" stroke="#CD1E28" stroke-width="2" stroke-linecap="round" stroke-linejoin="round"/>
</svg>
