<svg width="64" height="64" viewBox="0 0 64 64" fill="none" xmlns="http://www.w3.org/2000/svg">
<path d="M32 63C49.1208 63 63 49.1208 63 32C63 14.8792 49.1208 1 32 1C14.8792 1 1 14.8792 1 32C1 49.1208 14.8792 63 32 63Z" stroke="url(#paint0_linear_102_200)" stroke-opacity="0.5" stroke-width="2" stroke-miterlimit="2.61313" stroke-linejoin="round"/>
<path d="M58 32H55" stroke="url(#paint1_linear_102_200)" stroke-width="2" stroke-miterlimit="2.61313" stroke-linecap="round"/>
<path d="M32 58L32 55" stroke="url(#paint2_linear_102_200)" stroke-width="2" stroke-miterlimit="2.61313" stroke-linecap="round"/>
<path d="M6 32H9" stroke="url(#paint3_linear_102_200)" stroke-width="2" stroke-miterlimit="2.61313" stroke-linecap="round"/>
<path d="M32 6L32 9" stroke="url(#paint4_linear_102_200)" stroke-width="2" stroke-miterlimit="2.61313" stroke-linecap="round"/>
<path d="M32 59C46.9117 59 59 46.9117 59 32C59 17.0883 46.9117 5 32 5C17.0883 5 5 17.0883 5 32C5 46.9117 17.0883 59 32 59Z" stroke="url(#paint5_linear_102_200)" stroke-width="2" stroke-miterlimit="2.61313" stroke-linejoin="round"/>
<path d="M42 37L44.4161 42.4361C44.9739 43.6913 43.6913 44.9739 42.4361 44.4161L37 42" stroke="url(#paint6_linear_102_200)" stroke-width="2" stroke-miterlimit="2.61313" stroke-linecap="round" stroke-linejoin="round"/>
<path d="M42 27L44.4161 21.5639C44.9739 20.3087 43.6913 19.0261 42.4361 19.5839L37 22" stroke="url(#paint7_linear_102_200)" stroke-width="2" stroke-miterlimit="2.61313" stroke-linecap="round" stroke-linejoin="round"/>
<path d="M22 37L19.5839 42.4361C19.0261 43.6913 20.3087 44.9739 21.5639 44.4161L27 42" stroke="url(#paint8_linear_102_200)" stroke-width="2" stroke-miterlimit="2.61313" stroke-linecap="round" stroke-linejoin="round"/>
<path d="M22 27L19.5839 21.5639C19.0261 20.3087 20.3087 19.0261 21.5639 19.5839L27 22" stroke="url(#paint9_linear_102_200)" stroke-width="2" stroke-miterlimit="2.61313" stroke-linecap="round" stroke-linejoin="round"/>
<path fill-rule="evenodd" clip-rule="evenodd" d="M48.783 30.6213C49.9952 31.1408 49.9952 32.8592 48.783 33.3787L38.5515 37.7636C38.1975 37.9154 37.9154 38.1975 37.7636 38.5515L33.3787 48.783C32.8592 49.9952 31.1408 49.9952 30.6213 48.783L26.2364 38.5515C26.0846 38.1975 25.8025 37.9154 25.4485 37.7636L15.217 33.3787C14.0048 32.8592 14.0048 31.1408 15.217 30.6213L25.4485 26.2364C25.8025 26.0846 26.0846 25.8025 26.2364 25.4485L30.6213 15.217C31.1408 14.0048 32.8592 14.0048 33.3787 15.217L37.7636 25.4485C37.9154 25.8025 38.1975 26.0846 38.5515 26.2364L48.783 30.6213ZM35 32C35 33.6569 33.6569 35 32 35C30.3431 35 29 33.6569 29 32C29 30.3431 30.3431 29 32 29C33.6569 29 35 30.3431 35 32Z" fill="white" stroke="url(#paint10_linear_102_200)" stroke-width="2" stroke-miterlimit="2.61313" stroke-linejoin="round"/>
<path d="M32 35C33.6569 35 35 33.6569 35 32C35 30.3431 33.6569 29 32 29C30.3431 29 29 30.3431 29 32C29 33.6569 30.3431 35 32 35Z" stroke="url(#paint11_linear_102_200)" stroke-width="2" stroke-miterlimit="2.61313" stroke-linejoin="round"/>
<defs>
<linearGradient id="paint0_linear_102_200" x1="32" y1="1" x2="32" y2="63" gradientUnits="userSpaceOnUse">
<stop stop-color="#009BFF"/>
<stop offset="1" stop-color="#0041E6"/>
</linearGradient>
<linearGradient id="paint1_linear_102_200" x1="54.0541" y1="32" x2="58" y2="32" gradientUnits="userSpaceOnUse">
<stop stop-color="#F5DC64"/>
<stop offset="1" stop-color="#F5DC64" stop-opacity="0.25"/>
</linearGradient>
<linearGradient id="paint2_linear_102_200" x1="32.6306" y1="54.0541" x2="32.6306" y2="58" gradientUnits="userSpaceOnUse">
<stop stop-color="#F5DC64"/>
<stop offset="1" stop-color="#F5DC64" stop-opacity="0.25"/>
</linearGradient>
<linearGradient id="paint3_linear_102_200" x1="9.94591" y1="32" x2="6" y2="32" gradientUnits="userSpaceOnUse">
<stop stop-color="#F5DC64"/>
<stop offset="1" stop-color="#F5DC64" stop-opacity="0.25"/>
</linearGradient>
<linearGradient id="paint4_linear_102_200" x1="32" y1="9.94591" x2="32" y2="6" gradientUnits="userSpaceOnUse">
<stop stop-color="#F5DC64"/>
<stop offset="1" stop-color="#F5DC64" stop-opacity="0.25"/>
</linearGradient>
<linearGradient id="paint5_linear_102_200" x1="32" y1="5" x2="32" y2="59" gradientUnits="userSpaceOnUse">
<stop stop-color="#009BFF"/>
<stop offset="1" stop-color="#0041E6"/>
</linearGradient>
<linearGradient id="paint6_linear_102_200" x1="44.5" y1="44.5" x2="39" y2="39" gradientUnits="userSpaceOnUse">
<stop stop-color="#009BFF"/>
<stop offset="1" stop-color="#0041E6"/>
</linearGradient>
<linearGradient id="paint7_linear_102_200" x1="44.5" y1="19.5" x2="39" y2="25" gradientUnits="userSpaceOnUse">
<stop stop-color="#F5DC64"/>
<stop offset="1" stop-color="#FF4B2D"/>
</linearGradient>
<linearGradient id="paint8_linear_102_200" x1="19.5" y1="44.5" x2="25" y2="39" gradientUnits="userSpaceOnUse">
<stop stop-color="#9BFFA5"/>
<stop offset="1" stop-color="#2DAF19"/>
</linearGradient>
<linearGradient id="paint9_linear_102_200" x1="19.5" y1="19.5" x2="25" y2="25" gradientUnits="userSpaceOnUse">
<stop stop-color="#6446F0"/>
<stop offset="1" stop-color="#AFA0FF"/>
</linearGradient>
<linearGradient id="paint10_linear_102_200" x1="32" y1="13.5" x2="32" y2="48.5" gradientUnits="userSpaceOnUse">
<stop stop-color="#AFFAFF"/>
<stop offset="1" stop-color="#0A69FA"/>
</linearGradient>
<linearGradient id="paint11_linear_102_200" x1="32" y1="29" x2="32" y2="35" gradientUnits="userSpaceOnUse">
<stop stop-color="#FF3C00"/>
<stop offset="1" stop-color="#FFA096"/>
</linearGradient>
</defs>
</svg>
