<svg width="24" height="24" viewBox="0 0 24 24" fill="none" xmlns="http://www.w3.org/2000/svg">
<path d="M3 19C3 16.7909 4.79086 15 7 15H17C19.2091 15 21 16.7909 21 19V23H3V19Z" fill="#C3E6FF" stroke="#7396C3" stroke-width="2" stroke-miterlimit="2.61313" stroke-linecap="round" stroke-linejoin="round"/>
<path d="M6 18.5C6 18.2239 6.22386 18 6.5 18H9.5C9.77614 18 10 18.2239 10 18.5V19C10 20.1046 9.10457 21 8 21V21C6.89543 21 6 20.1046 6 19V18.5Z" fill="#7396C3"/>
<path d="M6 18.5C6 18.2239 6.22386 18 6.5 18H9.5C9.77614 18 10 18.2239 10 18.5V19H6V18.5Z" fill="white"/>
<path d="M9 12H15V14L12 16L9 14V12Z" fill="#C89B87"/>
<ellipse cx="17" cy="7.75" rx="1" ry="1.25" fill="#C89B87"/>
<ellipse cx="7" cy="7.75" rx="1" ry="1.25" fill="#C89B87"/>
<path d="M17 8C17 11.3137 14.7614 13 12 13C9.23858 13 7 11.3137 7 8C7 4.68629 9.23858 1 12 1C14.7614 1 17 4.68629 17 8Z" fill="#E6BEAA"/>
<circle cx="14.25" cy="8.75" r="0.75" fill="#19375F"/>
<circle cx="9.75" cy="8.75" r="0.75" fill="#19375F"/>
<path d="M8.30155 8H7V5C7 2.23858 9.23858 0 12 0C14.7614 0 17 2.23858 17 5V8H15.75C15.6119 8 15.5 7.88807 15.5 7.75V6.32843C15.5 5.79799 15.2893 5.28929 14.9142 4.91421L13.5 3.5C13.5 4.66291 12.6792 5.66417 11.5388 5.89223L9.21429 6.35714C8.79896 6.44021 8.5 6.80488 8.5 7.22843V7.80155C8.5 7.91115 8.41115 8 8.30155 8Z" fill="#785032"/>
</svg>
