<svg width="24" height="24" viewBox="0 0 24 24" fill="none" xmlns="http://www.w3.org/2000/svg">
<g clip-path="url(#clip0_533_2507)">
<path d="M15 18V21C15 22 17 23 19 23C21 23 23 22 23 21V18" stroke="#19375F" stroke-width="2" stroke-linecap="round" stroke-linejoin="round"/>
<path d="M1 18V21C1 22 3 23 5 23C7 23 9 22 9 21V18" stroke="#F0CD0A" stroke-width="2" stroke-linecap="round" stroke-linejoin="round"/>
<path d="M15 15V18C15 19 17 20 19 20C21 20 23 19 23 18V15" stroke="#F0CD0A" stroke-width="2" stroke-linecap="round" stroke-linejoin="round"/>
<path d="M15 12V15C15 16 17 17 19 17C21 17 23 16 23 15V12" stroke="#A5AFBE" stroke-width="2" stroke-linecap="round" stroke-linejoin="round"/>
<path d="M1 15V18C1 19 3 20 5 20C7 20 9 19 9 18V15" stroke="#19375F" stroke-width="2" stroke-linecap="round" stroke-linejoin="round"/>
<path d="M19 14C21.2091 14 23 13.1046 23 12C23 10.8954 21.2091 10 19 10C16.7909 10 15 10.8954 15 12C15 13.1046 16.7909 14 19 14Z" stroke="#19375F" stroke-width="2" stroke-linecap="round" stroke-linejoin="round"/>
<path d="M5 17C7.20914 17 9 16.1046 9 15C9 13.8954 7.20914 13 5 13C2.79086 13 1 13.8954 1 15C1 16.1046 2.79086 17 5 17Z" stroke="#F0CD0A" stroke-width="2" stroke-linecap="round" stroke-linejoin="round"/>
<path d="M23 2L20 5L18.5 6.5" stroke="#CD1E28" stroke-width="2" stroke-linecap="round" stroke-linejoin="round"/>
<path d="M19 2H23V6" stroke="#CD1E28" stroke-width="2" stroke-linecap="round" stroke-linejoin="round"/>
<path d="M1 6.5L4 3.5L5.5 2" stroke="#CD1E28" stroke-width="2" stroke-linecap="round" stroke-linejoin="round"/>
<path d="M5 6.5H1V2.5" stroke="#CD1E28" stroke-width="2" stroke-linecap="round" stroke-linejoin="round"/>
<path d="M12 8V9" stroke="#0F8C50" stroke-width="2" stroke-linecap="round" stroke-linejoin="round"/>
<path d="M12 1V2" stroke="#0F8C50" stroke-width="2" stroke-linecap="round" stroke-linejoin="round"/>
<path d="M10 8H14V6L10 4V2H14" stroke="#0F8C50" stroke-width="2" stroke-linecap="round" stroke-linejoin="round"/>
</g>
<defs>
<clipPath id="clip0_533_2507">
<rect width="24" height="24" fill="white"/>
</clipPath>
</defs>
</svg>
