<svg width="64" height="64" viewBox="0 0 64 64" fill="none" xmlns="http://www.w3.org/2000/svg">
<path d="M32 63C49.1208 63 63 49.1208 63 32C63 14.8792 49.1208 1 32 1C14.8792 1 1 14.8792 1 32C1 49.1208 14.8792 63 32 63Z" stroke="url(#paint0_linear_410_109)" stroke-opacity="0.5" stroke-width="2" stroke-miterlimit="2.61313" stroke-linejoin="round"/>
<path d="M32 59C46.9117 59 59 46.9117 59 32C59 17.0883 46.9117 5 32 5C17.0883 5 5 17.0883 5 32C5 46.9117 17.0883 59 32 59Z" stroke="url(#paint1_linear_410_109)" stroke-width="2" stroke-miterlimit="2.61313" stroke-linejoin="round"/>
<path d="M18 18C18 16.3431 19.3431 15 21 15H46V49H21C19.3431 49 18 47.6569 18 46V18Z" fill="#19005A"/>
<path d="M46 43H21C19.3431 43 18 44.3431 18 46C18 47.6569 19.3431 49 21 49H46V43Z" fill="url(#paint2_linear_410_109)"/>
<path d="M41 15V24L37 22L33 24V15" stroke="url(#paint3_linear_410_109)" stroke-width="2" stroke-miterlimit="2.61313" stroke-linecap="round" stroke-linejoin="round"/>
<path d="M23 15L23 43" stroke="url(#paint4_linear_410_109)" stroke-width="2" stroke-miterlimit="2.61313" stroke-linecap="round"/>
<path d="M46 46V15H21C19.3431 15 18 16.3431 18 18V46" stroke="url(#paint5_linear_410_109)" stroke-width="2" stroke-miterlimit="2.61313" stroke-linejoin="round"/>
<path d="M46 43H21C19.3431 43 18 44.3431 18 46C18 47.6569 19.3431 49 21 49H46V43Z" stroke="url(#paint6_linear_410_109)" stroke-width="2" stroke-miterlimit="2.61313" stroke-linejoin="round"/>
<defs>
<linearGradient id="paint0_linear_410_109" x1="32" y1="1" x2="32" y2="63" gradientUnits="userSpaceOnUse">
<stop stop-color="#009BFF"/>
<stop offset="1" stop-color="#0041E6"/>
</linearGradient>
<linearGradient id="paint1_linear_410_109" x1="32" y1="5" x2="32" y2="59" gradientUnits="userSpaceOnUse">
<stop stop-color="#009BFF"/>
<stop offset="1" stop-color="#0041E6"/>
</linearGradient>
<linearGradient id="paint2_linear_410_109" x1="32" y1="43.225" x2="32" y2="48.475" gradientUnits="userSpaceOnUse">
<stop stop-color="#D2F5FF"/>
<stop offset="1" stop-color="#009BFF"/>
</linearGradient>
<linearGradient id="paint3_linear_410_109" x1="32.6923" y1="15" x2="41.3077" y2="15" gradientUnits="userSpaceOnUse">
<stop stop-color="#FAF541"/>
<stop offset="1" stop-color="#B4192D"/>
</linearGradient>
<linearGradient id="paint4_linear_410_109" x1="23" y1="51.8285" x2="23" y2="15" gradientUnits="userSpaceOnUse">
<stop stop-color="#F5DC64"/>
<stop offset="1" stop-color="#F5DC64" stop-opacity="0.25"/>
</linearGradient>
<linearGradient id="paint5_linear_410_109" x1="28.7196" y1="19.0769" x2="28.7196" y2="37.7692" gradientUnits="userSpaceOnUse">
<stop stop-color="#D2F5FF"/>
<stop offset="1" stop-color="#009BFF"/>
</linearGradient>
<linearGradient id="paint6_linear_410_109" x1="30" y1="45" x2="30" y2="49" gradientUnits="userSpaceOnUse">
<stop stop-color="#009BFF"/>
<stop offset="1" stop-color="#0041E6"/>
</linearGradient>
</defs>
</svg>
