<svg width="21" height="22" viewBox="0 0 21 22" fill="none" xmlns="http://www.w3.org/2000/svg">
<path d="M19.6716 12.6235L18.8217 11.9239C18.2396 11.4447 18.2406 10.5539 18.8218 10.0757L19.6716 9.37609C20.2763 8.87819 20.431 8.02443 20.0394 7.34595L18.3613 4.43947C17.9696 3.76103 17.1527 3.46817 16.4192 3.74292L15.3884 4.1291C14.6824 4.39355 13.9115 3.94752 13.7878 3.205L13.6069 2.11919C13.4781 1.3465 12.816 0.785645 12.0327 0.785645H8.67657C7.89315 0.785645 7.23107 1.3465 7.10231 2.11923L6.92133 3.205C6.79737 3.94883 6.02548 4.39311 5.32075 4.12914L4.28996 3.74292C3.55649 3.46817 2.73968 3.76107 2.34791 4.43947L0.669884 7.34591C0.278196 8.02431 0.432844 8.87811 1.03767 9.37605L1.88748 10.0756C2.46969 10.5549 2.46853 11.4455 1.88748 11.9238L1.03763 12.6234C0.432844 13.1214 0.278156 13.9752 0.669844 14.6536L2.34791 17.56C2.73964 18.2384 3.55629 18.5313 4.28996 18.2566L5.32071 17.8704C6.02688 17.6059 6.79757 18.0522 6.92129 18.7945L7.10227 19.8803C7.23107 20.6531 7.89315 21.2139 8.67653 21.2139H12.0326C12.816 21.2139 13.4781 20.6531 13.6068 19.8803L13.7878 18.7946C13.9117 18.051 14.6836 17.6064 15.3884 17.8705L16.4192 18.2566C17.1529 18.5314 17.9696 18.2385 18.3613 17.5601L20.0394 14.6536C20.431 13.9752 20.2763 13.1214 19.6716 12.6235ZM16.9791 16.7621L15.9484 16.3759C14.3006 15.7586 12.5023 16.8001 12.2136 18.5322L12.0327 19.618H8.67657L8.49559 18.5322C8.20636 16.7967 6.40544 15.7598 4.76084 16.3759L3.73005 16.7621L2.05202 13.8556L2.90183 13.156C4.26035 12.0377 4.25752 9.95957 2.90183 8.84352L2.05202 8.14393L3.73009 5.23745L4.76084 5.62363C6.40867 6.24087 8.20692 5.19951 8.49559 3.46737L8.67653 2.3816H12.0326L12.2136 3.46737C12.5028 5.20306 14.3038 6.23959 15.9483 5.62363L16.9791 5.23745L18.6575 8.14353C18.6575 8.14353 18.6574 8.14365 18.6571 8.14389L17.8073 8.84348C16.4488 9.96177 16.4516 12.0399 17.8073 13.156L18.6571 13.8556L16.9791 16.7621ZM10.3546 7.06307C8.1839 7.06307 6.41789 8.82908 6.41789 10.9998C6.41789 13.1705 8.1839 14.9365 10.3546 14.9365C12.5253 14.9365 14.2913 13.1705 14.2913 10.9998C14.2913 8.82908 12.5253 7.06307 10.3546 7.06307ZM10.3546 13.3405C9.06391 13.3405 8.01384 12.2905 8.01384 10.9998C8.01384 9.70909 9.06391 8.65903 10.3546 8.65903C11.6453 8.65903 12.6953 9.70909 12.6953 10.9998C12.6953 12.2905 11.6453 13.3405 10.3546 13.3405Z" fill="black" stroke="black" stroke-width="0.5"/>
</svg>
