<svg width="64" height="64" viewBox="0 0 64 64" fill="none" xmlns="http://www.w3.org/2000/svg">
<path d="M32 63C49.1208 63 63 49.1208 63 32C63 14.8792 49.1208 1 32 1C14.8792 1 1 14.8792 1 32C1 49.1208 14.8792 63 32 63Z" stroke="url(#paint0_linear_669_2)" stroke-opacity="0.5" stroke-width="2" stroke-miterlimit="2.61313" stroke-linejoin="round"/>
<path d="M32 59C46.9117 59 59 46.9117 59 32C59 17.0883 46.9117 5 32 5C17.0883 5 5 17.0883 5 32C5 46.9117 17.0883 59 32 59Z" stroke="url(#paint1_linear_669_2)" stroke-width="2" stroke-miterlimit="2.61313" stroke-linejoin="round"/>
<path d="M33.6567 28.0446L34.8856 29.6226L34.8856 29.6226L33.6567 28.0446ZM33.0798 28.4796L34.2626 30.0924C34.2665 30.0895 34.2704 30.0866 34.2743 30.0837L33.0798 28.4796ZM33.0797 28.4796L34.2331 30.1136C34.243 30.1066 34.2528 30.0996 34.2625 30.0924L33.0797 28.4796ZM33.0797 28.4796L31.9264 26.8457C31.9126 26.8555 31.8989 26.8654 31.8853 26.8755L33.0797 28.4796ZM31.011 30.1514L32.3995 31.5908L32.3995 31.5908L31.011 30.1514ZM35 34.6557L33.4649 33.3737C33.1645 33.7334 33 34.1871 33 34.6557H35ZM35.1765 34.4698L33.788 33.0303L33.788 33.0303L35.1765 34.4698ZM36.2776 33.584L35.0876 31.9766L35.0876 31.9766L36.2776 33.584ZM37.3433 32.7785L36.1144 31.2005L36.1144 31.2005L37.3433 32.7785ZM34.9548 34.7145L36.7324 35.6311C37.2184 34.6885 36.8842 33.5305 35.9708 32.9918C35.0574 32.4531 33.8822 32.721 33.2925 33.6024L34.9548 34.7145ZM24 24C24 19.5802 27.5802 16 32 16V12C25.3711 12 20 17.3711 20 24H24ZM25 25C24.4477 25 24 24.5523 24 24H20C20 26.7614 22.2386 29 25 29V25ZM26 24C26 24.5523 25.5523 25 25 25V29C27.7614 29 30 26.7614 30 24H26ZM32 18C28.6848 18 26 20.6848 26 24H30C30 22.8939 30.8939 22 32 22V18ZM38 24C38 20.6848 35.3152 18 32 18V22C33.1061 22 34 22.8939 34 24H38ZM34.8856 29.6226C35.6652 29.0154 36.4767 28.3122 37.0687 27.3853C37.6984 26.3994 38 25.2934 38 24H34C34 24.6226 33.8697 24.9628 33.6977 25.2322C33.4879 25.5606 33.1277 25.9217 32.4279 26.4667L34.8856 29.6226ZM34.2743 30.0837C34.4891 29.9238 34.7068 29.7618 34.8856 29.6226L32.4279 26.4667C32.2908 26.5734 32.1123 26.7065 31.8854 26.8754L34.2743 30.0837ZM34.2625 30.0924L34.2626 30.0924L31.8971 26.8668L31.897 26.8668L34.2625 30.0924ZM34.2331 30.1136L34.2331 30.1136L31.9264 26.8457L31.9264 26.8457L34.2331 30.1136ZM32.3995 31.5908C32.8867 31.1209 33.606 30.5813 34.2741 30.0838L31.8853 26.8755C31.2731 27.3313 30.3299 28.0295 29.6225 28.7119L32.3995 31.5908ZM31 34.5C31 33.2427 31.6453 32.3183 32.3995 31.5908L29.6225 28.7119C28.5008 29.7939 27 31.6918 27 34.5H31ZM31 39V34.5H27V39H31ZM32 40C31.4477 40 31 39.5523 31 39H27C27 41.7614 29.2386 44 32 44V40ZM33 39C33 39.5523 32.5523 40 32 40V44C34.7614 44 37 41.7614 37 39H33ZM33 34.6557V39H37V34.6557H33ZM33.788 33.0303C33.6601 33.1537 33.5537 33.2674 33.4649 33.3737L36.5351 35.9376C36.5252 35.9495 36.5217 35.9529 36.5266 35.9477C36.5314 35.9426 36.5437 35.9298 36.565 35.9093L33.788 33.0303ZM35.0876 31.9766C34.6427 32.306 34.2131 32.6202 33.788 33.0303L36.565 35.9093C36.7691 35.7124 36.9798 35.5527 37.4676 35.1915L35.0876 31.9766ZM36.1144 31.2005C35.7019 31.5218 35.3745 31.7642 35.0876 31.9766L37.4676 35.1915C37.7572 34.9771 38.1182 34.71 38.5721 34.3565L36.1144 31.2005ZM40 24C40 27.7565 37.9587 29.7643 36.1144 31.2005L38.5721 34.3565C40.7688 32.6457 44 29.6065 44 24H40ZM32 16C36.4198 16 40 19.5802 40 24H44C44 17.3711 38.6289 12 32 12V16ZM34.5105 32.7748C34.8882 32.6902 35.6096 32.6616 36.2467 33.2058C36.8023 33.6804 36.9082 34.2762 36.9336 34.49C36.9839 34.9124 36.8797 35.2439 36.8743 35.263C36.8282 35.4286 36.7696 35.5515 36.7619 35.5681C36.7265 35.6443 36.6941 35.701 36.6839 35.7187C36.6554 35.7685 36.6309 35.806 36.6171 35.8266L33.2925 33.6024C33.2733 33.6311 33.2451 33.6746 33.2143 33.7284C33.2029 33.7481 33.1698 33.8062 33.134 33.8834C33.126 33.9005 33.0672 34.0238 33.021 34.1896C33.0157 34.2088 32.9114 34.5404 32.9617 34.9628C32.9871 35.1767 33.0931 35.7726 33.6486 36.2472C34.2857 36.7914 35.0072 36.7627 35.385 36.6781L34.5105 32.7748ZM33.1772 33.7979C33.1929 33.7675 33.2151 33.7266 33.2443 33.6789C33.2569 33.6583 33.2832 33.616 33.3201 33.5644C33.3353 33.543 33.3758 33.4868 33.4337 33.4197C33.4598 33.3894 33.522 33.3187 33.6112 33.2387C33.6556 33.1987 33.7361 33.1298 33.8463 33.0571C33.9332 32.9997 34.1685 32.8515 34.5105 32.7748L35.385 36.6781C35.727 36.6015 35.9623 36.4532 36.0492 36.3958C36.1595 36.3231 36.24 36.2541 36.2844 36.2141C36.3736 36.134 36.4359 36.0632 36.4622 36.0328C36.5203 35.9654 36.5611 35.9088 36.5767 35.8869C36.6143 35.8343 36.6416 35.7904 36.6555 35.7678C36.6871 35.7162 36.7127 35.6693 36.7324 35.6311L33.1772 33.7979ZM32 49C31.4477 49 31 48.5523 31 48H27C27 50.7614 29.2386 53 32 53V49ZM33 48C33 48.5523 32.5523 49 32 49V53C34.7614 53 37 50.7614 37 48H33ZM32 47C32.5523 47 33 47.4477 33 48H37C37 45.2386 34.7614 43 32 43V47ZM31 48C31 47.4477 31.4477 47 32 47V43C29.2386 43 27 45.2386 27 48H31Z" fill="url(#paint2_linear_669_2)"/>
<mask id="mask0_669_2" style="mask-type:alpha" maskUnits="userSpaceOnUse" x="22" y="14" width="20" height="37">
<path fill-rule="evenodd" clip-rule="evenodd" d="M32 14C26.4756 14 22 18.4756 22 24C22 25.6569 23.3431 27 25 27C26.6569 27 28 25.6569 28 24C28 21.7894 29.7894 20 32 20C34.2106 20 36 21.7894 36 24C36 25.916 35.1362 26.8925 33.6567 28.0446C33.4988 28.1676 33.3007 28.3151 33.0798 28.4796L33.0797 28.4796L33.0797 28.4796C32.4395 28.9563 31.6083 29.5752 31.011 30.1514C30.0731 31.0561 29 32.4673 29 34.5V39C29 40.6569 30.3431 42 32 42C33.6569 42 35 40.6569 35 39V34.6557C35.035 34.6138 35.0907 34.5525 35.1765 34.4698C35.4911 34.1663 35.8112 33.9293 36.2776 33.584C36.5659 33.3707 36.91 33.1159 37.3433 32.7785C39.3638 31.205 42 28.6815 42 24C42 18.4756 37.5244 14 32 14ZM34.9477 34.7265C34.9474 34.7265 34.9494 34.7226 34.9548 34.7145C34.9508 34.7223 34.9481 34.7264 34.9477 34.7265ZM29 48C29 49.6569 30.3431 51 32 51C33.6569 51 35 49.6569 35 48C35 46.3431 33.6569 45 32 45C30.3431 45 29 46.3431 29 48Z" fill="white"/>
</mask>
<g mask="url(#mask0_669_2)">
<path fill-rule="evenodd" clip-rule="evenodd" d="M32 14C26.4756 14 22 18.4756 22 24C22 25.6569 23.3431 27 25 27C26.6569 27 28 25.6569 28 24C28 21.7894 29.7894 20 32 20C34.2106 20 36 21.7894 36 24C36 25.916 35.1362 26.8925 33.6567 28.0446C33.4988 28.1676 33.3007 28.3151 33.0798 28.4796L33.0797 28.4796L33.0797 28.4796C32.4395 28.9563 31.6083 29.5752 31.011 30.1514C30.0731 31.0561 29 32.4673 29 34.5V39C29 40.6569 30.3431 42 32 42C33.6569 42 35 40.6569 35 39V34.6557C35.035 34.6138 35.0907 34.5525 35.1765 34.4698C35.4911 34.1663 35.8112 33.9293 36.2776 33.584C36.5659 33.3707 36.91 33.1159 37.3433 32.7785C39.3638 31.205 42 28.6815 42 24C42 18.4756 37.5244 14 32 14ZM34.9477 34.7265C34.9474 34.7265 34.9494 34.7226 34.9548 34.7145C34.9508 34.7223 34.9481 34.7264 34.9477 34.7265ZM29 48C29 49.6569 30.3431 51 32 51C33.6569 51 35 49.6569 35 48C35 46.3431 33.6569 45 32 45C30.3431 45 29 46.3431 29 48Z" fill="white"/>
<path d="M42 40L22 47V55L42 48V40Z" fill="#FF0000"/>
<path d="M42 24L22 31V39L42 32V24Z" fill="#FF0000"/>
<path d="M42 8L22 15V23L42 16V8Z" fill="#FF0000"/>
</g>
<defs>
<linearGradient id="paint0_linear_669_2" x1="32" y1="1" x2="32" y2="63" gradientUnits="userSpaceOnUse">
<stop stop-color="#009BFF"/>
<stop offset="1" stop-color="#0041E6"/>
</linearGradient>
<linearGradient id="paint1_linear_669_2" x1="32" y1="5" x2="32" y2="59" gradientUnits="userSpaceOnUse">
<stop stop-color="#009BFF"/>
<stop offset="1" stop-color="#0041E6"/>
</linearGradient>
<linearGradient id="paint2_linear_669_2" x1="32" y1="14" x2="32" y2="51" gradientUnits="userSpaceOnUse">
<stop stop-color="#009BFF"/>
<stop offset="1" stop-color="#0041E6"/>
</linearGradient>
</defs>
</svg>
