<svg width="128" height="64" viewBox="0 0 128 64" fill="none" xmlns="http://www.w3.org/2000/svg">
<rect x="1" y="1" width="126" height="62" rx="16" stroke="url(#paint0_linear_501_9)" stroke-opacity="0.5" stroke-width="2" stroke-miterlimit="2.61313" stroke-linejoin="round"/>
<rect x="5" y="5" width="118" height="54" rx="12" stroke="url(#paint1_linear_501_9)" stroke-width="2" stroke-miterlimit="2.61313" stroke-linejoin="round"/>
<path d="M107 41V31.7016C107 31.2474 106.845 30.8068 106.562 30.4522L99.6005 21.7506C99.2209 21.2762 98.6463 21 98.0387 21H29.9612C29.3537 21 28.7791 21.2762 28.3995 21.7506L21.4383 30.4522C21.1546 30.8068 21 31.2474 21 31.7016V41C21 42.1046 21.8954 43 23 43H105C106.105 43 107 42.1046 107 41Z" fill="#19005A"/>
<path d="M21 31H49C50.1046 31 51 31.8954 51 33V34C51 35.1046 51.8954 36 53 36H75C76.1046 36 77 35.1046 77 34V33C77 31.8954 77.8954 31 79 31H107" stroke="url(#paint2_linear_501_9)" stroke-width="2" stroke-miterlimit="2.61313" stroke-linejoin="round"/>
<path d="M107 41V31.7016C107 31.2474 106.845 30.8068 106.562 30.4522L99.6005 21.7506C99.2209 21.2762 98.6463 21 98.0387 21H29.9612C29.3537 21 28.7791 21.2762 28.3995 21.7506L21.4383 30.4522C21.1546 30.8068 21 31.2474 21 31.7016V41C21 42.1046 21.8954 43 23 43H105C106.105 43 107 42.1046 107 41Z" stroke="url(#paint3_linear_501_9)" stroke-width="2" stroke-miterlimit="2.61313" stroke-linecap="round" stroke-linejoin="round"/>
<defs>
<linearGradient id="paint0_linear_501_9" x1="64" y1="1" x2="64" y2="63" gradientUnits="userSpaceOnUse">
<stop stop-color="#009BFF"/>
<stop offset="1" stop-color="#0041E6"/>
</linearGradient>
<linearGradient id="paint1_linear_501_9" x1="64" y1="5" x2="64" y2="59" gradientUnits="userSpaceOnUse">
<stop stop-color="#009BFF"/>
<stop offset="1" stop-color="#0041E6"/>
</linearGradient>
<linearGradient id="paint2_linear_501_9" x1="64" y1="31" x2="64" y2="36" gradientUnits="userSpaceOnUse">
<stop stop-color="#FF3C00"/>
<stop offset="1" stop-color="#FFA096"/>
</linearGradient>
<linearGradient id="paint3_linear_501_9" x1="86" y1="24.6667" x2="77.9333" y2="48.8667" gradientUnits="userSpaceOnUse">
<stop stop-color="#009BFF"/>
<stop offset="1" stop-color="#0041E6"/>
</linearGradient>
</defs>
</svg>
