<svg width="24" height="24" viewBox="0 0 24 24" fill="none" xmlns="http://www.w3.org/2000/svg">
<path d="M20 1H4C3.44772 1 3 1.44772 3 2V3C3 3.55228 3.44772 4 4 4H8.5C8.81476 4 9.11115 4.14819 9.3 4.4L11.7 7.6C11.8889 7.85181 12.1852 8 12.5 8H20C20.5523 8 21 7.55228 21 7V2C21 1.44772 20.5523 1 20 1Z" fill="#FF3764" fill-opacity="0.5" stroke="#FF3764" stroke-width="2" stroke-miterlimit="2.61313" stroke-linecap="round" stroke-linejoin="round"/>
<path d="M20 23H4C2.34315 23 1 21.6569 1 20V8H12H22C22.5523 8 23 8.44772 23 9V20C23 21.6569 21.6569 23 20 23Z" fill="#19375F" stroke="#19375F" stroke-width="2" stroke-miterlimit="2.61313" stroke-linecap="round" stroke-linejoin="round"/>
<path d="M1 20V5C1 4.44772 1.44772 4 2 4H8.5C8.81476 4 9.11115 4.14819 9.3 4.4L11.7 7.6C11.8889 7.85181 12.1852 8 12.5 8H22C22.5523 8 23 8.44772 23 9V20C23 21.6569 21.6569 23 20 23H4C2.34315 23 1 21.6569 1 20Z" stroke="#19375F" stroke-width="2" stroke-miterlimit="2.61313" stroke-linecap="round" stroke-linejoin="round"/>
<path d="M12 21C12.5523 21 13 20.5523 13 20C13 19.4477 12.5523 19 12 19C11.4477 19 11 19.4477 11 20C11 20.5523 11.4477 21 12 21Z" fill="#FF3764"/>
<path d="M12 11V16" stroke="#FF3764" stroke-width="2" stroke-miterlimit="2.61313" stroke-linecap="round" stroke-linejoin="round"/>
</svg>
