<svg width="24" height="24" viewBox="0 0 24 24" fill="none" xmlns="http://www.w3.org/2000/svg">
<path d="M9 2H11L12 5H8L9 2Z" fill="#F59191" stroke="#C84141" stroke-miterlimit="2.61313" stroke-linejoin="round"/>
<path d="M15.5 11V6H18L23 11H15.5Z" fill="white"/>
<path d="M15.5 11V6H18L23 11H15.5Z" fill="#1978F0" fill-opacity="0.5"/>
<path opacity="0.4" d="M16 6H17V11H16V6Z" fill="white"/>
<path d="M5 20H3C1.89543 20 1 19.1046 1 18V7C1 5.89543 1.89543 5 3 5H9.5H17.1716C17.702 5 18.2107 5.21071 18.5858 5.58579L22.4142 9.41421C22.7893 9.78929 23 10.298 23 10.8284V18C23 19.1046 22.1046 20 21 20H19" stroke="#19375F" stroke-width="2" stroke-linecap="round" stroke-linejoin="round"/>
<path d="M9 20H15" stroke="#19375F" stroke-width="2" stroke-linecap="round" stroke-linejoin="round"/>
<path d="M22.4142 9.41421L18.5858 5.58579C18.2107 5.21071 17.702 5 17.1716 5H15V12H23V10.8284C23 10.298 22.7893 9.78929 22.4142 9.41421Z" stroke="#19375F" stroke-width="2" stroke-linecap="round" stroke-linejoin="round"/>
<path d="M6.5 23C7.88071 23 9 21.8807 9 20.5C9 19.1193 7.88071 18 6.5 18C5.11929 18 4 19.1193 4 20.5C4 21.8807 5.11929 23 6.5 23Z" stroke="#19375F" stroke-width="2" stroke-miterlimit="2.61313" stroke-linecap="round" stroke-linejoin="round"/>
<path d="M6.5 22C7.32843 22 8 21.3284 8 20.5C8 19.6716 7.32843 19 6.5 19C5.67157 19 5 19.6716 5 20.5C5 21.3284 5.67157 22 6.5 22Z" fill="#A5AFBE"/>
<path d="M6.5 21C6.77614 21 7 20.7761 7 20.5C7 20.2239 6.77614 20 6.5 20C6.22386 20 6 20.2239 6 20.5C6 20.7761 6.22386 21 6.5 21Z" fill="white"/>
<path d="M17.5 23C18.8807 23 20 21.8807 20 20.5C20 19.1193 18.8807 18 17.5 18C16.1193 18 15 19.1193 15 20.5C15 21.8807 16.1193 23 17.5 23Z" stroke="#19375F" stroke-width="2" stroke-miterlimit="2.61313" stroke-linecap="round" stroke-linejoin="round"/>
<path d="M17.5 22C18.3284 22 19 21.3284 19 20.5C19 19.6716 18.3284 19 17.5 19C16.6716 19 16 19.6716 16 20.5C16 21.3284 16.6716 22 17.5 22Z" fill="#A5AFBE"/>
<path d="M17.5 21C17.7761 21 18 20.7761 18 20.5C18 20.2239 17.7761 20 17.5 20C17.2239 20 17 20.2239 17 20.5C17 20.7761 17.2239 21 17.5 21Z" fill="white"/>
<path d="M2 15H22V16H2V15Z" fill="#C84141"/>
<path d="M5.5 11C5.22386 11 5 10.7761 5 10.5V9.5C5 9.22386 5.22386 9 5.5 9H10.5C10.7761 9 11 9.22386 11 9.5V10.5C11 10.7761 10.7761 11 10.5 11H5.5Z" fill="#C84141"/>
<path d="M6.99976 7.5C6.99976 7.22386 7.22361 7 7.49976 7H8.49976C8.7759 7 8.99976 7.22386 8.99976 7.5V12.5C8.99976 12.7761 8.7759 13 8.49976 13H7.49976C7.22361 13 6.99976 12.7761 6.99976 12.5V7.5Z" fill="#C84141"/>
<path d="M14 2.5H14.75" stroke="#C84141" stroke-opacity="0.35" stroke-miterlimit="2.61313" stroke-linecap="round" stroke-linejoin="round"/>
<path d="M12.5 1.5L13.5 0.5" stroke="#C84141" stroke-opacity="0.35" stroke-miterlimit="2.61313" stroke-linecap="round" stroke-linejoin="round"/>
<path d="M7.5 1.5L6.5 0.5" stroke="#1978F0" stroke-opacity="0.35" stroke-miterlimit="2.61313" stroke-linecap="round" stroke-linejoin="round"/>
<path d="M6 2.5H5.25" stroke="#1978F0" stroke-opacity="0.35" stroke-miterlimit="2.61313" stroke-linecap="round" stroke-linejoin="round"/>
</svg>
