<?xml version="1.0" encoding="UTF-8" standalone="no"?>
<!DOCTYPE svg PUBLIC "-//W3C//DTD SVG 1.1//EN" "http://www.w3.org/Graphics/SVG/1.1/DTD/svg11.dtd">
<svg width="100%" height="100%" viewBox="0 0 400 156" version="1.1" xmlns="http://www.w3.org/2000/svg" xmlns:xlink="http://www.w3.org/1999/xlink" xml:space="preserve" xmlns:serif="http://www.serif.com/" style="fill-rule:evenodd;clip-rule:evenodd;stroke-linejoin:round;stroke-miterlimit:2;">
    <g transform="matrix(0.544959,0,0,0.534247,-5.68434e-14,1.42109e-14)">
        <rect x="0" y="-0" width="734" height="292" style="fill:rgb(24,55,94);"/>
    </g>
    <g transform="matrix(1,0,0,1,-32,-101)">
        <g transform="matrix(-1.20159,-1.47152e-16,1.47626e-16,-1.20546,504.657,437.453)">
            <path d="M361.735,157.992L85.698,157.992L65.461,270.812L341.29,270.812L351.097,217.164L361.735,157.992Z" style="fill:white;"/>
        </g>
        <g transform="matrix(-1.20159,-1.47152e-16,1.47626e-16,-1.20546,476.657,437.453)">
            <path d="M361.735,157.992L85.698,157.992L65.461,270.812L341.29,270.812L351.097,217.164L361.735,157.992Z" style="fill:white;"/>
        </g>
    </g>
</svg>
