<svg width="24" height="24" viewBox="0 0 24 24" fill="none" xmlns="http://www.w3.org/2000/svg">
<g clip-path="url(#clip0_119_4874)">
<rect x="1" y="1" width="22" height="22" rx="3" fill="#8CB9F0"/>
<path d="M23 20L19 16L12 23H20L23 20Z" fill="#558700"/>
<path d="M8 13L1 20L4 23H12L15 20L8 13Z" fill="#78B900"/>
<path d="M8 13L12 18H10L9 17L8 18L7 17L6 18H4L8 13Z" fill="white"/>
<path d="M1 20L8 13L15 20" stroke="#558237" stroke-width="2" stroke-miterlimit="2.61313" stroke-linecap="round" stroke-linejoin="round"/>
<path d="M23 20L19 16L15 20L12 23" stroke="#3C5A28" stroke-width="2" stroke-miterlimit="2.61313" stroke-linecap="round" stroke-linejoin="round"/>
<path d="M8.50781 5C7.72928 5 7.13209 5.48232 6.76172 6.10938C5.98953 5.87626 5.29613 6.34391 5.11328 7.16016C4.49861 7.34779 4 7.82756 4 8.5C4 9.32253 4.67747 10 5.5 10H10.5C11.3225 10 12 9.32253 12 8.5C12 7.71766 11.3712 7.10473 10.6035 7.04297C10.5497 5.91801 9.64503 5 8.50781 5Z" fill="white"/>
<path d="M17.212 5.33935C17.1141 5.18264 16.8859 5.18264 16.788 5.33935L16.2821 6.14904C16.2737 6.16248 16.2605 6.17205 16.2454 6.17699V6.17699C16.2299 6.18209 16.2129 6.18068 16.1984 6.17299L15.3532 5.72371C15.19 5.63701 14.9925 5.75108 14.986 5.9357L14.9532 6.87008C14.9524 6.89188 14.9434 6.91258 14.928 6.928V6.928C14.9126 6.94342 14.8919 6.95243 14.8701 6.95319L13.9357 6.98598C13.7511 6.99245 13.637 7.19003 13.7237 7.35316L14.1731 8.19863C14.1807 8.21294 14.1822 8.22941 14.1771 8.2448V8.2448C14.172 8.25997 14.1624 8.27376 14.1488 8.28223L13.3393 8.78798C13.1826 8.88589 13.1826 9.11411 13.3393 9.21202L14.149 9.7179C14.1625 9.7263 14.1721 9.73952 14.177 9.75459V9.75459C14.1821 9.77014 14.1807 9.78713 14.173 9.80159L13.7237 10.6468C13.637 10.81 13.7511 11.0075 13.9357 11.014L14.8701 11.0468C14.8919 11.0476 14.9126 11.0566 14.928 11.072V11.072C14.9434 11.0874 14.9524 11.1081 14.9532 11.1299L14.986 12.0643C14.9925 12.2489 15.19 12.363 15.3532 12.2763L16.1984 11.827C16.2129 11.8193 16.2299 11.8179 16.2454 11.823V11.823C16.2605 11.8279 16.2737 11.8375 16.2821 11.851L16.788 12.6607C16.8859 12.8174 17.1141 12.8174 17.212 12.6607L17.7173 11.8519C17.7261 11.8378 17.74 11.8277 17.7556 11.8223V11.8223C17.7705 11.8172 17.7867 11.8191 17.8007 11.8265L18.6468 12.2763C18.81 12.363 19.0075 12.2489 19.014 12.0643L19.0468 11.1299C19.0476 11.1081 19.0566 11.0874 19.072 11.072V11.072C19.0874 11.0566 19.1081 11.0476 19.1299 11.0468L20.0643 11.014C20.2489 11.0075 20.363 10.81 20.2763 10.6468L19.8269 9.80137C19.8193 9.78706 19.8178 9.77059 19.8229 9.75521V9.75521C19.828 9.74003 19.8376 9.72624 19.8512 9.71777L20.6607 9.21202C20.8174 9.11411 20.8174 8.88589 20.6607 8.78798L19.8512 8.28223C19.8376 8.27376 19.828 8.25997 19.8229 8.2448V8.2448C19.8178 8.22941 19.8193 8.21294 19.8269 8.19863L20.2763 7.35316C20.363 7.19003 20.2489 6.99245 20.0643 6.98598L19.1299 6.95319C19.1081 6.95243 19.0874 6.94342 19.072 6.928V6.928C19.0566 6.91258 19.0476 6.89188 19.0468 6.87008L19.014 5.9357C19.0075 5.75108 18.81 5.63701 18.6468 5.72371L17.8016 6.17299C17.7871 6.18068 17.7701 6.18209 17.7546 6.17699V6.17699C17.7395 6.17205 17.7263 6.16248 17.7179 6.14904L17.212 5.33935Z" fill="#F0CD0A"/>
<circle cx="17" cy="9" r="2" fill="#FFF0A5"/>
<rect x="1" y="1" width="22" height="22" rx="3" stroke="#19375F" stroke-width="2" stroke-miterlimit="2.61313" stroke-linecap="round" stroke-linejoin="round"/>
</g>
<defs>
<clipPath id="clip0_119_4874">
<rect width="24" height="24" fill="white"/>
</clipPath>
</defs>
</svg>
