<svg width="24" height="24" viewBox="0 0 24 24" fill="none" xmlns="http://www.w3.org/2000/svg">
<path d="M23 11.4045V18.5955C23 18.7813 22.8044 18.9022 22.6382 18.8191L17 16V15V14L22.6382 11.1809C22.8044 11.0978 23 11.2187 23 11.4045Z" fill="#DCE1E6" stroke="#647891" stroke-width="2" stroke-miterlimit="2.61313" stroke-linecap="round" stroke-linejoin="round"/>
<path d="M1 11C1 9.34315 2.34315 8 4 8H14C15.6569 8 17 9.34315 17 11V19C17 20.6569 15.6569 22 14 22H4C2.34315 22 1 20.6569 1 19V11Z" fill="#AFC3D2" stroke="#647891" stroke-width="2" stroke-miterlimit="2.61313" stroke-linecap="round" stroke-linejoin="round"/>
<path d="M13 17V13C13 12.4477 12.5523 12 12 12H6C5.44772 12 5 12.4477 5 13V17C5 17.5523 5.44772 18 6 18H12C12.5523 18 13 17.5523 13 17Z" fill="#C3E6FF" stroke="#19375F" stroke-width="2" stroke-miterlimit="2.61313" stroke-linecap="round" stroke-linejoin="round"/>
<circle cx="9" cy="15" r="1" fill="#CD1E28"/>
<path d="M12 8C13.6569 8 15 6.65685 15 5C15 3.34315 13.6569 2 12 2C10.3431 2 9 3.34315 9 5C9 6.65685 10.3431 8 12 8Z" stroke="#647891" stroke-width="2" stroke-miterlimit="2.61313" stroke-linecap="round" stroke-linejoin="round"/>
<path d="M12 7C13.1046 7 14 6.10457 14 5C14 3.89543 13.1046 3 12 3C10.8954 3 10 3.89543 10 5C10 6.10457 10.8954 7 12 7Z" fill="#19375F"/>
<path d="M12 6C12.5523 6 13 5.55228 13 5C13 4.44772 12.5523 4 12 4C11.4477 4 11 4.44772 11 5C11 5.55228 11.4477 6 12 6Z" fill="#0F8C50"/>
<path d="M6 8C7.65685 8 9 6.65685 9 5C9 3.34315 7.65685 2 6 2C4.34315 2 3 3.34315 3 5C3 6.65685 4.34315 8 6 8Z" stroke="#647891" stroke-width="2" stroke-miterlimit="2.61313" stroke-linecap="round" stroke-linejoin="round"/>
<path d="M6 7C7.10457 7 8 6.10457 8 5C8 3.89543 7.10457 3 6 3C4.89543 3 4 3.89543 4 5C4 6.10457 4.89543 7 6 7Z" fill="#19375F"/>
<path d="M6 6C6.55228 6 7 5.55228 7 5C7 4.44772 6.55228 4 6 4C5.44772 4 5 4.44772 5 5C5 5.55228 5.44772 6 6 6Z" fill="#CD1E28"/>
</svg>
