<svg width="24" height="24" viewBox="0 0 24 24" fill="none" xmlns="http://www.w3.org/2000/svg">
<g clip-path="url(#clip0_119_4727)">
<path d="M12 10.5L7 12L4 17.5L15 23.5L16.5 22.5L17.4117 21.8922C17.716 21.6893 17.7587 21.2587 17.5 21L19 20L15 16L11.5 18L10 17L12 13.5L15 12L12 10.5Z" fill="#E6BEAA"/>
<path d="M15.0001 12H17.5001L20.0001 10.5L23.0001 16.5L20.5001 18L18.7001 19.5C18.5401 19.5 16.1668 17.1667 15.0001 16L12.1237 17.6437C11.7415 17.8621 11.2688 17.8458 10.9026 17.6016C10.3944 17.2629 10.2352 16.5885 10.5382 16.0583L11.5495 14.2886C11.8433 13.7744 12.2828 13.3587 12.8126 13.0938L15.0001 12Z" fill="#C89B87"/>
<path d="M20.0001 10.5L17.5001 12L20.5001 18L23.0001 16.5L20.0001 10.5Z" fill="#8291A5"/>
<path d="M4 10.5L1 16L4 17.5L7 12L4 10.5Z" fill="#1978F0"/>
<path d="M7 12L4 10.5L1 16L4 17.5L7 12ZM7 12L10.8604 10.8419C11.5924 10.6223 12.3806 10.6903 13.0641 11.0321L15 12M15 12H17.5M15 12L12.8124 13.0938C12.2827 13.3587 11.8432 13.7744 11.5493 14.2886L10.5381 16.0583C10.2351 16.5885 10.3943 17.2629 10.9025 17.6016V17.6016C11.2687 17.8458 11.7414 17.8621 12.1235 17.6437L15 16C16.1667 17.1667 18.54 19.5 18.7 19.5L20.5 18M17.5 12L20 10.5L23 16.5L20.5 18M17.5 12L20.5 18" stroke="#19375F" stroke-miterlimit="2.61313" stroke-linecap="round" stroke-linejoin="round"/>
<path d="M15 18.9502L16.9724 20.5281C17.2866 20.7795 17.7274 20.7986 18.0622 20.5754V20.5754C18.5473 20.252 18.6153 19.5655 18.203 19.1532L17.5 18.4502" stroke="#19375F" stroke-miterlimit="2.61313" stroke-linecap="round" stroke-linejoin="round"/>
<path d="M13.95 20.5L15.9927 22.1022C16.2954 22.3396 16.7163 22.3558 17.0363 22.1424V22.1424C17.5229 21.818 17.57 21.1207 17.1315 20.7337L16.3 20" stroke="#19375F" stroke-miterlimit="2.61313" stroke-linecap="round" stroke-linejoin="round"/>
<path d="M14 20.5L15.3717 21.6927C15.8391 22.0992 15.7918 22.8389 15.2764 23.1824V23.1824C14.9839 23.3775 14.6069 23.3927 14.2996 23.222L4 17.5" stroke="#19375F" stroke-miterlimit="2.61313" stroke-linecap="round" stroke-linejoin="round"/>
<path d="M8.8951 19.5696L8.24206 20.2392C7.85475 20.6363 7.91944 21.2867 8.37738 21.5998C8.72023 21.8341 9.1794 21.8012 9.48527 21.5202L10.1741 20.8876C10.6013 20.4952 10.5624 19.8102 10.0937 19.4686C9.72462 19.1996 9.21398 19.2427 8.8951 19.5696Z" fill="#C89B87" stroke="#19375F" stroke-miterlimit="2.61313" stroke-linecap="round" stroke-linejoin="round"/>
<path d="M10.8951 20.5696L10.2421 21.2392C9.85475 21.6363 9.91944 22.2867 10.3774 22.5998C10.7202 22.8341 11.1794 22.8012 11.4853 22.5202L12.1741 21.8876C12.6013 21.4952 12.5624 20.8102 12.0937 20.4686C11.7246 20.1996 11.214 20.2427 10.8951 20.5696Z" fill="#C89B87" stroke="#19375F" stroke-miterlimit="2.61313" stroke-linecap="round" stroke-linejoin="round"/>
<path d="M6.80617 19.7299L7.14862 20.0254C7.45721 20.2917 7.92004 20.2707 8.20319 19.9775C8.50301 19.667 8.48833 19.1705 8.17068 18.8783L7.83777 18.5721C7.50327 18.2644 6.97705 18.309 6.69915 18.6687C6.44726 18.9947 6.49426 19.4608 6.80617 19.7299Z" fill="#C89B87" stroke="#19375F" stroke-miterlimit="2.61313" stroke-linecap="round" stroke-linejoin="round"/>
<circle cx="21" cy="16" r="0.5" fill="white"/>
<circle cx="3.25" cy="15.5" r="0.5" fill="white"/>
<path d="M19 1H5C4.44772 1 4 1.44772 4 2V8C4 8.55228 4.44772 9 5 9H19C19.5523 9 20 8.55228 20 8V2C20 1.44772 19.5523 1 19 1Z" fill="#558237" fill-opacity="0.35" stroke="#558237" stroke-width="2" stroke-miterlimit="2.61313" stroke-linecap="round" stroke-linejoin="round"/>
<path d="M17.5455 9L20 6.85714V3.14286L17.5455 1H6.45455L4 3.14286V6.85714L6.45455 9H17.5455Z" stroke="#558237" stroke-width="2" stroke-miterlimit="2.61313" stroke-linecap="round" stroke-linejoin="round"/>
<circle cx="17" cy="5" r="1" fill="#558237"/>
<path d="M12 6C12.5523 6 13 5.55228 13 5C13 4.44772 12.5523 4 12 4C11.4477 4 11 4.44772 11 5C11 5.55228 11.4477 6 12 6Z" stroke="#558237" stroke-width="2" stroke-miterlimit="2.61313" stroke-linecap="round" stroke-linejoin="round"/>
<circle cx="7" cy="5" r="1" fill="#558237"/>
</g>
<defs>
<clipPath id="clip0_119_4727">
<rect width="24" height="24" fill="white"/>
</clipPath>
</defs>
</svg>
