<svg width="64" height="64" viewBox="0 0 64 64" fill="none" xmlns="http://www.w3.org/2000/svg">
<path d="M32 63C49.1208 63 63 49.1208 63 32C63 14.8792 49.1208 1 32 1C14.8792 1 1 14.8792 1 32C1 49.1208 14.8792 63 32 63Z" stroke="url(#paint0_linear_631_386)" stroke-opacity="0.5" stroke-width="2" stroke-miterlimit="2.61313" stroke-linejoin="round"/>
<path d="M32 59C46.9117 59 59 46.9117 59 32C59 17.0883 46.9117 5 32 5C17.0883 5 5 17.0883 5 32C5 46.9117 17.0883 59 32 59Z" stroke="url(#paint1_linear_631_386)" stroke-width="2" stroke-miterlimit="2.61313" stroke-linejoin="round"/>
<path d="M14 22C14 17.5817 17.5817 14 22 14H42C46.4183 14 50 17.5817 50 22V42C50 46.4183 46.4183 50 42 50H22C17.5817 50 14 46.4183 14 42V22Z" fill="#19005A"/>
<path fill-rule="evenodd" clip-rule="evenodd" d="M46.5765 35C47.0816 35 47.5075 35.3768 47.569 35.8781L47.9927 39.3293C48.06 39.8775 47.6702 40.3764 47.122 40.4437C46.5739 40.511 46.0749 40.1212 46.0076 39.573L45.6917 37H43.4452L43.1293 39.573C43.082 39.9584 42.8159 40.2815 42.4469 40.4019C41.4824 40.7165 40.595 41.2408 39.8463 41.9399C39.5563 42.2107 39.1336 42.2844 38.769 42.1278L36.4364 41.1255L35.2981 43.1334L37.3358 44.7048C37.6413 44.9404 37.784 45.3307 37.7025 45.7078C37.5932 46.2137 37.5375 46.7302 37.5363 47.2483C37.5375 47.7665 37.5932 48.283 37.7025 48.7888C37.8191 49.3287 37.4761 49.8608 36.9362 49.9775C36.3964 50.0941 35.8642 49.751 35.7476 49.2112C35.6085 48.567 35.5376 47.9097 35.5363 47.2503V47.2463C35.5372 46.8014 35.5698 46.3574 35.6336 45.9177L33.3895 44.1871C32.9952 43.8831 32.8847 43.3353 33.1302 42.9021L35.1383 39.3599C35.3897 38.9164 35.9346 38.733 36.403 38.9343L38.9831 40.0429C39.6617 39.4966 40.4145 39.0521 41.2185 38.7236L41.5679 35.8781C41.6294 35.3768 42.0553 35 42.5604 35H46.5765ZM44.5002 50.5C45.0525 50.5 45.5002 50.0523 45.5002 49.5C45.5002 49.4673 45.4986 49.4349 45.4955 49.403C45.5159 49.4277 45.5377 49.4517 45.5608 49.4749C45.9514 49.8654 46.5845 49.8654 46.975 49.4749C47.6073 48.8426 48.0002 47.9662 48.0002 47C48.0002 45.067 46.4332 43.5 44.5002 43.5C42.5672 43.5 41.0002 45.067 41.0002 47C41.0002 48.933 42.5672 50.5 44.5002 50.5ZM45.5608 48.0607C45.3408 48.2807 45.2448 48.5777 45.2726 48.8649C45.0892 48.6421 44.8113 48.5 44.5002 48.5C43.6717 48.5 43.0002 47.8284 43.0002 47C43.0002 46.1716 43.6717 45.5 44.5002 45.5C45.3286 45.5 46.0002 46.1716 46.0002 47C46.0002 47.4145 45.8334 47.7881 45.5608 48.0607Z" fill="url(#paint2_linear_631_386)"/>
<path fill-rule="evenodd" clip-rule="evenodd" d="M17.4239 35C16.9187 35 16.4929 35.3768 16.4314 35.8781L16.0077 39.3293C15.9404 39.8775 16.3302 40.3764 16.8784 40.4437C17.4265 40.511 17.9255 40.1212 17.9928 39.573L18.3086 37H20.5552L20.8711 39.573C20.9184 39.9584 21.1845 40.2815 21.5535 40.4019C22.518 40.7165 23.4054 41.2408 24.1541 41.9399C24.4441 42.2107 24.8668 42.2844 25.2313 42.1278L27.564 41.1255L28.7023 43.1334L26.6646 44.7048C26.3591 44.9404 26.2164 45.3307 26.2979 45.7078C26.4071 46.2137 26.4629 46.7302 26.4641 47.2483C26.4629 47.7665 26.4071 48.283 26.2979 48.7888C26.1812 49.3287 26.5243 49.8608 27.0642 49.9775C27.604 50.0941 28.1361 49.751 28.2528 49.2112C28.3919 48.567 28.4627 47.9097 28.4641 47.2503V47.2463C28.4632 46.8014 28.4306 46.3574 28.3668 45.9177L30.6109 44.1871C31.0052 43.8831 31.1157 43.3353 30.8701 42.9021L28.8621 39.3599C28.6107 38.9164 28.0658 38.733 27.5974 38.9343L25.0173 40.0429C24.3387 39.4966 23.5859 39.0521 22.7818 38.7236L22.4325 35.8781C22.371 35.3768 21.9451 35 21.44 35H17.4239ZM19.5002 50.5C18.9479 50.5 18.5002 50.0523 18.5002 49.5C18.5002 49.4673 18.5018 49.4349 18.5049 49.403C18.4845 49.4277 18.4627 49.4517 18.4395 49.4749C18.049 49.8654 17.4159 49.8654 17.0253 49.4749C16.3931 48.8426 16.0002 47.9662 16.0002 47C16.0002 45.067 17.5672 43.5 19.5002 43.5C21.4332 43.5 23.0002 45.067 23.0002 47C23.0002 48.933 21.4332 50.5 19.5002 50.5ZM18.4395 48.0607C18.6595 48.2807 18.7556 48.5777 18.7277 48.8649C18.9111 48.6421 19.1891 48.5 19.5002 48.5C20.3286 48.5 21.0002 47.8284 21.0002 47C21.0002 46.1716 20.3286 45.5 19.5002 45.5C18.6718 45.5 18.0002 46.1716 18.0002 47C18.0002 47.4145 18.167 47.7881 18.4395 48.0607Z" fill="url(#paint3_linear_631_386)"/>
<path d="M46 32L42.694 31.462C42.4238 30.3214 41.9717 29.2318 41.355 28.235L44.021 24.808L41.192 21.979L37.765 24.645C36.7682 24.0283 35.6786 23.5762 34.538 23.306L34 19H30L29.462 23.306C28.3214 23.5762 27.2318 24.0283 26.235 24.645L22.808 21.979L19.979 24.808L22.645 28.235C22.0283 29.2318 21.5762 30.3214 21.306 31.462L18 32" stroke="url(#paint4_linear_631_386)" stroke-width="2" stroke-miterlimit="2.61313" stroke-linecap="round" stroke-linejoin="round"/>
<path d="M32 37C34.2091 37 36 35.2091 36 33C36 30.7909 34.2091 29 32 29C29.7909 29 28 30.7909 28 33C28 35.2091 29.7909 37 32 37Z" stroke="url(#paint5_linear_631_386)" stroke-width="2" stroke-miterlimit="2.61313" stroke-linecap="round" stroke-linejoin="round"/>
<path d="M14 22C14 17.5817 17.5817 14 22 14H42C46.4183 14 50 17.5817 50 22V42C50 46.4183 46.4183 50 42 50H22C17.5817 50 14 46.4183 14 42V22Z" stroke="url(#paint6_linear_631_386)" stroke-width="2" stroke-miterlimit="2.61313" stroke-linejoin="round"/>
<defs>
<linearGradient id="paint0_linear_631_386" x1="32" y1="1" x2="32" y2="63" gradientUnits="userSpaceOnUse">
<stop stop-color="#009BFF"/>
<stop offset="1" stop-color="#0041E6"/>
</linearGradient>
<linearGradient id="paint1_linear_631_386" x1="32" y1="5" x2="32" y2="59" gradientUnits="userSpaceOnUse">
<stop stop-color="#009BFF"/>
<stop offset="1" stop-color="#0041E6"/>
</linearGradient>
<linearGradient id="paint2_linear_631_386" x1="48.0003" y1="61.4498" x2="48.0003" y2="32" gradientUnits="userSpaceOnUse">
<stop stop-color="#C3FF32"/>
<stop offset="1" stop-color="#14AF9B"/>
</linearGradient>
<linearGradient id="paint3_linear_631_386" x1="16.0001" y1="51.9063" x2="16.0001" y2="35" gradientUnits="userSpaceOnUse">
<stop stop-color="#FAF541"/>
<stop offset="1" stop-color="#FF4B2D"/>
</linearGradient>
<linearGradient id="paint4_linear_631_386" x1="32" y1="19" x2="32" y2="32" gradientUnits="userSpaceOnUse">
<stop stop-color="#D2F5FF"/>
<stop offset="1" stop-color="#009BFF"/>
</linearGradient>
<linearGradient id="paint5_linear_631_386" x1="32" y1="29" x2="32" y2="37" gradientUnits="userSpaceOnUse">
<stop stop-color="#D2F5FF"/>
<stop offset="1" stop-color="#009BFF"/>
</linearGradient>
<linearGradient id="paint6_linear_631_386" x1="32" y1="14" x2="32" y2="50" gradientUnits="userSpaceOnUse">
<stop stop-color="#009BFF"/>
<stop offset="1" stop-color="#0041E6"/>
</linearGradient>
</defs>
</svg>
