<svg width="64" height="64" viewBox="0 0 64 64" fill="none" xmlns="http://www.w3.org/2000/svg">
<path d="M32 63C49.1208 63 63 49.1208 63 32C63 14.8792 49.1208 1 32 1C14.8792 1 1 14.8792 1 32C1 49.1208 14.8792 63 32 63Z" stroke="url(#paint0_linear_311_536)" stroke-opacity="0.5" stroke-width="2" stroke-miterlimit="2.61313" stroke-linejoin="round"/>
<path d="M32 59C46.9117 59 59 46.9117 59 32C59 17.0883 46.9117 5 32 5C17.0883 5 5 17.0883 5 32C5 46.9117 17.0883 59 32 59Z" stroke="url(#paint1_linear_311_536)" stroke-width="2" stroke-miterlimit="2.61313" stroke-linejoin="round"/>
<circle cx="32" cy="32" r="19" fill="#19005A"/>
<path fill-rule="evenodd" clip-rule="evenodd" d="M50 32C50 32.2796 49.7664 32.4999 49.487 32.4922L46.3902 32.4067C46.1717 32.4007 46 32.2186 46 32V32V32C46 31.7814 46.1717 31.5993 46.3902 31.5933L49.487 31.5078C49.7664 31.5001 50 31.7204 50 32V32V32ZM48.6339 25.1091C48.7407 25.3667 48.6097 25.6595 48.3492 25.759L45.4504 26.8662C45.2482 26.9434 45.022 26.8415 44.939 26.6415V26.6415C44.8561 26.4415 44.9441 26.2101 45.1417 26.1216L47.9733 24.8525C48.2278 24.7385 48.527 24.8515 48.6339 25.1091V25.1091ZM44.7279 19.2721C44.9251 19.4693 44.9157 19.7894 44.7131 19.981L42.4596 22.1122C42.3018 22.2615 42.0531 22.2541 41.8995 22.1005V22.1005C41.7459 21.9469 41.7385 21.6982 41.8878 21.5404L44.019 19.2869C44.2106 19.0843 44.5307 19.0749 44.7279 19.2721V19.2721ZM38.8909 15.3661C39.1485 15.473 39.2615 15.7722 39.1475 16.0267L37.8784 18.8583C37.7899 19.0559 37.5585 19.1439 37.3585 19.061V19.061C37.1585 18.978 37.0566 18.7518 37.1338 18.5496L38.241 15.6508C38.3405 15.3903 38.6333 15.2593 38.8909 15.3661V15.3661ZM32 14C32.2796 14 32.4999 14.2336 32.4922 14.513L32.4067 17.6098C32.4007 17.8283 32.2186 18 32 18V18V18C31.7814 18 31.5993 17.8283 31.5933 17.6098L31.5078 14.513C31.5001 14.2336 31.7204 14 32 14V14V14ZM25.1091 15.3661C25.3667 15.2593 25.6595 15.3903 25.759 15.6508L26.8662 18.5496C26.9434 18.7518 26.8415 18.978 26.6415 19.061V19.061C26.4415 19.1439 26.2101 19.0559 26.1216 18.8583L24.8525 16.0267C24.7385 15.7722 24.8515 15.473 25.1091 15.3661V15.3661ZM19.2721 19.2721C19.4693 19.0749 19.7894 19.0843 19.981 19.2869L22.1122 21.5404C22.2615 21.6982 22.2541 21.9469 22.1005 22.1005V22.1005C21.9469 22.2541 21.6982 22.2615 21.5404 22.1122L19.2869 19.981C19.0843 19.7894 19.0749 19.4693 19.2721 19.2721V19.2721ZM15.3661 25.1091C15.473 24.8515 15.7722 24.7385 16.0267 24.8525L18.8583 26.1216C19.0559 26.2101 19.1439 26.4415 19.061 26.6415V26.6415C18.978 26.8415 18.7518 26.9434 18.5495 26.8662L15.6508 25.759C15.3903 25.6595 15.2593 25.3667 15.3661 25.1091V25.1091ZM14.513 31.5078C14.2336 31.5001 14 31.7204 14 32V32V32C14 32.2796 14.2336 32.4999 14.513 32.4922L17.6098 32.4067C17.8283 32.4007 18 32.2186 18 32V32V32C18 31.7814 17.8283 31.5993 17.6098 31.5933L14.513 31.5078ZM15.3661 38.8909C15.2593 38.6333 15.3903 38.3405 15.6508 38.241L18.5496 37.1338C18.7518 37.0566 18.978 37.1585 19.061 37.3585V37.3585C19.1439 37.5585 19.0559 37.7899 18.8583 37.8784L16.0267 39.1475C15.7722 39.2615 15.473 39.1485 15.3661 38.8909V38.8909ZM19.2721 44.7279C19.0749 44.5307 19.0843 44.2106 19.2869 44.019L21.5404 41.8878C21.6982 41.7385 21.9469 41.7459 22.1005 41.8995V41.8995C22.2541 42.0531 22.2615 42.3018 22.1122 42.4596L19.981 44.7131C19.7894 44.9157 19.4693 44.9251 19.2721 44.7279V44.7279ZM25.1091 48.6339C24.8515 48.527 24.7385 48.2278 24.8525 47.9733L26.1216 45.1417C26.2101 44.9441 26.4415 44.8561 26.6415 44.939V44.939C26.8415 45.022 26.9434 45.2482 26.8662 45.4505L25.759 48.3492C25.6595 48.6097 25.3667 48.7407 25.1091 48.6339V48.6339ZM32 50C31.7204 50 31.5001 49.7664 31.5078 49.487L31.5933 46.3902C31.5993 46.1717 31.7814 46 32 46V46V46C32.2186 46 32.4007 46.1717 32.4067 46.3902L32.4922 49.487C32.4999 49.7664 32.2796 50 32 50V50V50ZM38.8909 48.6339C38.6333 48.7407 38.3405 48.6097 38.241 48.3492L37.1338 45.4504C37.0566 45.2482 37.1585 45.022 37.3585 44.939V44.939C37.5585 44.8561 37.7899 44.9441 37.8784 45.1417L39.1475 47.9733C39.2615 48.2278 39.1485 48.527 38.8909 48.6339V48.6339ZM44.7279 44.7279C44.5307 44.9251 44.2106 44.9157 44.019 44.7131L41.8878 42.4596C41.7385 42.3018 41.7459 42.0531 41.8995 41.8995V41.8995C42.0531 41.7459 42.3018 41.7385 42.4596 41.8878L44.7131 44.019C44.9157 44.2106 44.9251 44.5307 44.7279 44.7279V44.7279ZM48.6339 38.8909C48.527 39.1485 48.2278 39.2615 47.9733 39.1475L45.1417 37.8784C44.9441 37.7899 44.8561 37.5585 44.939 37.3585V37.3585C45.022 37.1585 45.2482 37.0566 45.4505 37.1338L48.3492 38.241C48.6097 38.3405 48.7407 38.6333 48.6339 38.8909V38.8909Z" fill="white" fill-opacity="0.3"/>
<path d="M54 32C54 44.1503 44.1503 54 32 54C19.8497 54 10 44.1503 10 32C10 19.8497 19.8497 10 32 10C44.1503 10 54 19.8497 54 32ZM15.5 32C15.5 41.1127 22.8873 48.5 32 48.5C41.1127 48.5 48.5 41.1127 48.5 32C48.5 22.8873 41.1127 15.5 32 15.5C22.8873 15.5 15.5 22.8873 15.5 32Z" fill="white"/>
<path d="M54 32C54 44.1503 44.1503 54 32 54C19.8497 54 10 44.1503 10 32C10 19.8497 19.8497 10 32 10C44.1503 10 54 19.8497 54 32ZM15.5 32C15.5 41.1127 22.8873 48.5 32 48.5C41.1127 48.5 48.5 41.1127 48.5 32C48.5 22.8873 41.1127 15.5 32 15.5C22.8873 15.5 15.5 22.8873 15.5 32Z" fill="#19005A" fill-opacity="0.25"/>
<path d="M32 10C36.3512 10 40.6047 11.2903 44.2225 13.7077C47.8404 16.1251 50.6602 19.561 52.3253 23.581C53.9905 27.6009 54.4262 32.0244 53.5773 36.292C52.7284 40.5596 50.6331 44.4796 47.5563 47.5563C44.4796 50.6331 40.5596 52.7284 36.292 53.5773C32.0244 54.4262 27.6009 53.9905 23.581 52.3253C19.561 50.6602 16.1251 47.8404 13.7077 44.2225C11.2903 40.6047 10 36.3512 10 32L15.5 32C15.5 35.2634 16.4677 38.4535 18.2808 41.1669C20.0938 43.8803 22.6707 45.9952 25.6857 47.244C28.7007 48.4929 32.0183 48.8196 35.219 48.183C38.4197 47.5463 41.3597 45.9748 43.6673 43.6673C45.9748 41.3597 47.5463 38.4197 48.183 35.219C48.8196 32.0183 48.4929 28.7007 47.244 25.6857C45.9952 22.6707 43.8803 20.0938 41.1669 18.2808C38.4535 16.4677 35.2634 15.5 32 15.5L32 10Z" fill="url(#paint2_radial_311_536)"/>
<path d="M10.7041 32.7437C10.3227 32.757 10.0015 32.4585 10.0001 32.0768V32.0768C9.9988 31.6951 10.3179 31.3944 10.6995 31.405L14.9883 31.5248C15.2744 31.5328 15.4991 31.7713 15.5001 32.0576V32.0576C15.5011 32.3439 15.2781 32.5839 14.992 32.5939L10.7041 32.7437Z" fill="white"/>
<path d="M31.2563 10.7041C31.243 10.3227 31.5415 10.0015 31.9232 10.0001V10.0001C32.3049 9.9988 32.6056 10.3179 32.595 10.6995L32.4752 14.9883C32.4672 15.2744 32.2287 15.4991 31.9424 15.5001V15.5001C31.6561 15.5011 31.4161 15.2781 31.4061 14.992L31.2563 10.7041Z" fill="white"/>
<path d="M26 32L30 36L38 28" stroke="url(#paint3_linear_311_536)" stroke-width="4" stroke-miterlimit="2.61313" stroke-linecap="round" stroke-linejoin="round"/>
<defs>
<linearGradient id="paint0_linear_311_536" x1="32" y1="1" x2="32" y2="63" gradientUnits="userSpaceOnUse">
<stop stop-color="#009BFF"/>
<stop offset="1" stop-color="#0041E6"/>
</linearGradient>
<linearGradient id="paint1_linear_311_536" x1="32" y1="5" x2="32" y2="59" gradientUnits="userSpaceOnUse">
<stop stop-color="#009BFF"/>
<stop offset="1" stop-color="#0041E6"/>
</linearGradient>
<radialGradient id="paint2_radial_311_536" cx="0" cy="0" r="1" gradientUnits="userSpaceOnUse" gradientTransform="translate(64 32) rotate(-180) scale(64)">
<stop stop-color="#FAF541"/>
<stop offset="1" stop-color="#14AF9B"/>
</radialGradient>
<linearGradient id="paint3_linear_311_536" x1="32" y1="28" x2="32" y2="36" gradientUnits="userSpaceOnUse">
<stop stop-color="#D2F5FF"/>
<stop offset="1" stop-color="#009BFF"/>
</linearGradient>
</defs>
</svg>
