<svg width="64" height="64" viewBox="0 0 64 64" fill="none" xmlns="http://www.w3.org/2000/svg">
<g clip-path="url(#clip0_602_22)">
<path d="M5 12C5 8.68629 7.68629 6 11 6H35C38.3137 6 41 8.68629 41 12V56C41 59.3137 38.3137 62 35 62H11C7.68629 62 5 59.3137 5 56V12Z" fill="#19005A" stroke="url(#paint0_linear_602_22)" stroke-width="4" stroke-miterlimit="2.61313" stroke-linecap="round" stroke-linejoin="round"/>
<circle cx="23" cy="54" r="2" fill="url(#paint1_linear_602_22)"/>
<path opacity="0.5" d="M13 46C13 47.1046 13.8954 48 15 48H31C32.1046 48 33 47.1046 33 46V16C33 14.8954 32.1046 14 31 14H15C13.8954 14 13 14.8954 13 16V46Z" fill="url(#paint2_linear_602_22)"/>
<path d="M23 8V38L33 30H53C56.3137 30 59 27.3137 59 24V8C59 4.68629 56.3137 2 53 2H29C25.6863 2 23 4.68629 23 8Z" fill="#19005A" stroke="url(#paint3_linear_602_22)" stroke-width="4" stroke-miterlimit="2.61313" stroke-linecap="round" stroke-linejoin="round"/>
<circle cx="33" cy="16" r="2" fill="url(#paint4_linear_602_22)"/>
<circle cx="41" cy="16" r="2" fill="url(#paint5_linear_602_22)"/>
<circle cx="49" cy="16" r="2" fill="url(#paint6_linear_602_22)"/>
</g>
<defs>
<linearGradient id="paint0_linear_602_22" x1="21.2" y1="6" x2="21.2" y2="63.8065" gradientUnits="userSpaceOnUse">
<stop stop-color="#009BFF"/>
<stop offset="1" stop-color="#0041E6"/>
</linearGradient>
<linearGradient id="paint1_linear_602_22" x1="20.1453" y1="52" x2="25.4103" y2="52" gradientUnits="userSpaceOnUse">
<stop stop-color="#FAF541"/>
<stop offset="1" stop-color="#B4192D"/>
</linearGradient>
<linearGradient id="paint2_linear_602_22" x1="22" y1="48" x2="22" y2="12.9032" gradientUnits="userSpaceOnUse">
<stop stop-color="#009BFF"/>
<stop offset="1" stop-color="#0041E6"/>
</linearGradient>
<linearGradient id="paint3_linear_602_22" x1="15.3077" y1="2" x2="62.6923" y2="2" gradientUnits="userSpaceOnUse">
<stop stop-color="#FAF541"/>
<stop offset="1" stop-color="#B4192D"/>
</linearGradient>
<linearGradient id="paint4_linear_602_22" x1="35.0903" y1="14" x2="31" y2="14" gradientUnits="userSpaceOnUse">
<stop stop-color="#C3FF32"/>
<stop offset="1" stop-color="#14AF9B"/>
</linearGradient>
<linearGradient id="paint5_linear_602_22" x1="43.0903" y1="14" x2="39" y2="14" gradientUnits="userSpaceOnUse">
<stop stop-color="#C3FF32"/>
<stop offset="1" stop-color="#14AF9B"/>
</linearGradient>
<linearGradient id="paint6_linear_602_22" x1="51.0903" y1="14" x2="47" y2="14" gradientUnits="userSpaceOnUse">
<stop stop-color="#C3FF32"/>
<stop offset="1" stop-color="#14AF9B"/>
</linearGradient>
<clipPath id="clip0_602_22">
<rect width="64" height="64" fill="white"/>
</clipPath>
</defs>
</svg>
