<svg width="38" height="37" viewBox="0 0 38 37" fill="none" xmlns="http://www.w3.org/2000/svg">
<path d="M32.9974 4.35714H29.1402V1.78574C29.1402 1.07563 28.5646 0.5 27.8545 0.5C27.1444 0.5 26.5687 1.07563 26.5687 1.78574V4.35714H11.1402V1.78574C11.1402 1.07563 10.5645 0.5 9.85451 0.5C9.14448 0.5 8.56877 1.07563 8.56877 1.78574V4.35714H4.71163C2.58139 4.35714 0.854492 6.08404 0.854492 8.21428V32.6429C0.854492 34.7731 2.58139 36.5 4.71163 36.5H32.9974C35.1276 36.5 36.8545 34.7731 36.8545 32.6429V8.21428C36.8545 6.08404 35.1276 4.35714 32.9974 4.35714ZM34.283 32.6429C34.283 33.353 33.7074 33.9286 32.9973 33.9286H4.71163C4.00153 33.9286 3.42589 33.353 3.42589 32.6429V15.9286H34.283V32.6429ZM34.283 13.3572H3.42589V8.21428C3.42589 7.50417 4.00153 6.92854 4.71163 6.92854H8.56877V9.49994C8.56877 10.21 9.14441 10.7857 9.85451 10.7857C10.5646 10.7857 11.1402 10.21 11.1402 9.49994V6.92854H26.5688V9.49994C26.5688 10.21 27.1444 10.7857 27.8545 10.7857C28.5647 10.7857 29.1403 10.21 29.1403 9.49994V6.92854H32.9974C33.7075 6.92854 34.2832 7.50417 34.2832 8.21428L34.283 13.3572Z" fill="black"/>
<path d="M11.1402 20.1363H8.56877C7.85866 20.1363 7.28303 20.712 7.28303 21.4221C7.28303 22.1322 7.85866 22.7078 8.56877 22.7078H11.1402C11.8503 22.7078 12.4259 22.1322 12.4259 21.4221C12.4259 20.712 11.8503 20.1363 11.1402 20.1363Z" fill="black"/>
<path d="M20.1402 20.1363H17.5688C16.8587 20.1363 16.283 20.712 16.283 21.4221C16.283 22.1322 16.8587 22.7078 17.5688 22.7078H20.1402C20.8503 22.7078 21.4259 22.1322 21.4259 21.4221C21.4259 20.712 20.8503 20.1363 20.1402 20.1363Z" fill="black"/>
<path d="M29.1402 20.1363H26.5688C25.8586 20.1363 25.283 20.712 25.283 21.4221C25.283 22.1322 25.8586 22.7078 26.5688 22.7078H29.1402C29.8503 22.7078 30.4259 22.1322 30.4259 21.4221C30.4258 20.712 29.8502 20.1363 29.1402 20.1363Z" fill="black"/>
<path d="M11.1402 27.1493H8.56877C7.85866 27.1493 7.28303 27.725 7.28303 28.4351C7.28303 29.1452 7.85866 29.7207 8.56877 29.7207H11.1402C11.8503 29.7207 12.4259 29.1451 12.4259 28.435C12.4259 27.7249 11.8503 27.1493 11.1402 27.1493Z" fill="black"/>
<path d="M20.1402 27.1493H17.5688C16.8587 27.1493 16.283 27.725 16.283 28.4351C16.283 29.1452 16.8587 29.7208 17.5688 29.7208H20.1402C20.8503 29.7208 21.4259 29.1452 21.4259 28.4351C21.4259 27.725 20.8503 27.1493 20.1402 27.1493Z" fill="black"/>
<path d="M29.1402 27.1493H26.5688C25.8586 27.1493 25.283 27.725 25.283 28.4351C25.283 29.1452 25.8586 29.7208 26.5688 29.7208H29.1402C29.8503 29.7208 30.4259 29.1452 30.4259 28.4351C30.4259 27.725 29.8502 27.1493 29.1402 27.1493Z" fill="black"/>
<path d="M32.9974 4.35714H29.1402V1.78574C29.1402 1.07563 28.5646 0.5 27.8545 0.5C27.1444 0.5 26.5687 1.07563 26.5687 1.78574V4.35714H11.1402V1.78574C11.1402 1.07563 10.5645 0.5 9.85451 0.5C9.14448 0.5 8.56877 1.07563 8.56877 1.78574V4.35714H4.71163C2.58139 4.35714 0.854492 6.08404 0.854492 8.21428V32.6429C0.854492 34.7731 2.58139 36.5 4.71163 36.5H32.9974C35.1276 36.5 36.8545 34.7731 36.8545 32.6429V8.21428C36.8545 6.08404 35.1276 4.35714 32.9974 4.35714ZM34.283 32.6429C34.283 33.353 33.7074 33.9286 32.9973 33.9286H4.71163C4.00153 33.9286 3.42589 33.353 3.42589 32.6429V15.9286H34.283V32.6429ZM34.283 13.3572H3.42589V8.21428C3.42589 7.50417 4.00153 6.92854 4.71163 6.92854H8.56877V9.49994C8.56877 10.21 9.14441 10.7857 9.85451 10.7857C10.5646 10.7857 11.1402 10.21 11.1402 9.49994V6.92854H26.5688V9.49994C26.5688 10.21 27.1444 10.7857 27.8545 10.7857C28.5647 10.7857 29.1403 10.21 29.1403 9.49994V6.92854H32.9974C33.7075 6.92854 34.2832 7.50417 34.2832 8.21428L34.283 13.3572Z" stroke="black" stroke-width="0.4"/>
<path d="M11.1402 20.1363H8.56877C7.85866 20.1363 7.28303 20.712 7.28303 21.4221C7.28303 22.1322 7.85866 22.7078 8.56877 22.7078H11.1402C11.8503 22.7078 12.4259 22.1322 12.4259 21.4221C12.4259 20.712 11.8503 20.1363 11.1402 20.1363Z" stroke="black" stroke-width="0.4"/>
<path d="M20.1402 20.1363H17.5688C16.8587 20.1363 16.283 20.712 16.283 21.4221C16.283 22.1322 16.8587 22.7078 17.5688 22.7078H20.1402C20.8503 22.7078 21.4259 22.1322 21.4259 21.4221C21.4259 20.712 20.8503 20.1363 20.1402 20.1363Z" stroke="black" stroke-width="0.4"/>
<path d="M29.1402 20.1363H26.5688C25.8586 20.1363 25.283 20.712 25.283 21.4221C25.283 22.1322 25.8586 22.7078 26.5688 22.7078H29.1402C29.8503 22.7078 30.4259 22.1322 30.4259 21.4221C30.4258 20.712 29.8502 20.1363 29.1402 20.1363Z" stroke="black" stroke-width="0.4"/>
<path d="M11.1402 27.1493H8.56877C7.85866 27.1493 7.28303 27.725 7.28303 28.4351C7.28303 29.1452 7.85866 29.7207 8.56877 29.7207H11.1402C11.8503 29.7207 12.4259 29.1451 12.4259 28.435C12.4259 27.7249 11.8503 27.1493 11.1402 27.1493Z" stroke="black" stroke-width="0.4"/>
<path d="M20.1402 27.1493H17.5688C16.8587 27.1493 16.283 27.725 16.283 28.4351C16.283 29.1452 16.8587 29.7208 17.5688 29.7208H20.1402C20.8503 29.7208 21.4259 29.1452 21.4259 28.4351C21.4259 27.725 20.8503 27.1493 20.1402 27.1493Z" stroke="black" stroke-width="0.4"/>
<path d="M29.1402 27.1493H26.5688C25.8586 27.1493 25.283 27.725 25.283 28.4351C25.283 29.1452 25.8586 29.7208 26.5688 29.7208H29.1402C29.8503 29.7208 30.4259 29.1452 30.4259 28.4351C30.4259 27.725 29.8502 27.1493 29.1402 27.1493Z" stroke="black" stroke-width="0.4"/>
</svg>
