<svg width="40" height="39" viewBox="0 0 40 39" fill="none" xmlns="http://www.w3.org/2000/svg">
<path d="M20 0.699805C9.6171 0.699805 1.20005 9.11686 1.20005 19.4998C1.20005 29.8828 9.6171 38.2998 20 38.2998C30.383 38.2998 38.8 29.8828 38.8 19.4998C38.789 9.1215 30.3784 0.710899 20 0.699805ZM20 35.6141C11.1004 35.6141 3.88574 28.3995 3.88574 19.4998C3.88574 10.6001 11.1004 3.3855 20 3.3855C28.8997 3.3855 36.1144 10.6001 36.1144 19.4998C36.1048 28.3956 28.8958 35.6045 20 35.6141Z" fill="black"/>
<path d="M29.1434 9.75332C28.7663 9.56543 28.3229 9.56543 27.9458 9.75332L16.5516 15.4497C16.2912 15.5798 16.0801 15.7909 15.95 16.0514L10.2536 27.4455C9.92286 28.1094 10.1929 28.9156 10.8567 29.2463C11.2338 29.4342 11.6772 29.4342 12.0543 29.2463L23.4485 23.5499C23.7089 23.4198 23.92 23.2087 24.0501 22.9483L29.7465 11.5541C30.0772 10.8903 29.8073 10.0841 29.1434 9.75332ZM14.4581 25.0418L17.5198 18.9183L20.5815 21.9801L14.4581 25.0418ZM22.4803 20.0813L19.4186 17.0196L25.542 13.9578L22.4803 20.0813Z" fill="black"/>
<path fill-rule="evenodd" clip-rule="evenodd" d="M0.800049 19.4998C0.800049 8.89594 9.39619 0.299805 20 0.299805C30.599 0.311135 39.1888 8.90049 39.2 19.4994C39.2 30.1032 30.6039 38.6998 20 38.6998C9.39619 38.6998 0.800049 30.1037 0.800049 19.4998ZM19.9998 1.0998C9.8379 1.09992 1.60005 9.33784 1.60005 19.4998C1.60005 29.6618 9.83801 37.8998 20 37.8998C30.1619 37.8998 38.3998 29.6621 38.4 19.5002C38.3893 9.34258 30.1575 1.11078 19.9998 1.0998ZM20 3.7855C11.3213 3.7855 4.28574 10.821 4.28574 19.4998C4.28574 28.1784 11.321 35.2139 19.9996 35.2141C28.6748 35.2048 35.705 28.1746 35.7144 19.4994C35.7141 10.8208 28.6787 3.7855 20 3.7855ZM3.48574 19.4998C3.48574 10.3792 10.8794 2.9855 20 2.9855C29.1207 2.9855 36.5144 10.3792 36.5144 19.4998C36.5045 28.6161 29.1168 36.0043 20.0005 36.0141C10.8799 36.0141 3.48574 28.6204 3.48574 19.4998ZM27.7674 9.3953C28.2569 9.15144 28.8323 9.15144 29.3218 9.3953C30.1834 9.8246 30.5338 10.8709 30.1046 11.7324L24.408 23.127C24.4079 23.127 24.408 23.1269 24.408 23.127C24.2392 23.4648 23.9652 23.7389 23.6274 23.9076C23.6273 23.9077 23.6274 23.9076 23.6274 23.9076L12.2332 29.6041C11.7437 29.8479 11.1678 29.8482 10.6783 29.6043C9.8168 29.1751 9.46633 28.1288 9.89553 27.2672L15.5921 15.8726C15.5922 15.8726 15.5921 15.8727 15.5921 15.8726C15.7609 15.5348 16.0349 15.2607 16.3727 15.092C16.3728 15.0919 16.3727 15.092 16.3727 15.092L27.7674 9.3953ZM28.1242 10.1113C28.124 10.1114 28.1243 10.1113 28.1242 10.1113L16.7305 15.8075C16.5476 15.8989 16.3992 16.0472 16.3078 16.2301L10.6116 27.6239C10.6115 27.624 10.6117 27.6238 10.6116 27.6239C10.3797 28.09 10.5691 28.6561 11.035 28.8883C11.2997 29.0201 11.6108 29.0202 11.8754 28.8885M11.8754 28.8885L23.2696 23.1921C23.4525 23.1007 23.6009 22.9524 23.6922 22.7695L29.3885 11.3757C29.6207 10.9097 29.4312 10.3436 28.965 10.1113C28.7004 9.97948 28.3889 9.9796 28.1242 10.1113M20.0938 17.1291L22.3707 19.406L24.6476 14.8523L20.0938 17.1291ZM26.4364 13.0634L22.5899 20.7565L18.7433 16.91L26.4364 13.0634ZM17.4102 18.2431L21.2568 22.0896L13.5637 25.9362L17.4102 18.2431ZM17.6294 19.5936L15.3525 24.1473L19.9063 21.8705L17.6294 19.5936Z" fill="black"/>
</svg>
